<?xml version="1.0" encoding="iso-8859-1"?>
<svg version="1.1" id="Layer_1" xmlns="http://www.w3.org/2000/svg" xmlns:xlink="http://www.w3.org/1999/xlink" x="0px" y="0px"
	 viewBox="0 0 485 485" style="enable-background:new 0 0 485 485;" xml:space="preserve">
<path d="M414.012,70.988C368.234,25.211,307.324,0,242.5,0S116.766,25.211,70.988,70.988C25.211,116.766,0,177.677,0,242.5
		s25.211,125.734,70.988,171.512C116.766,459.789,177.676,485,242.5,485s125.734-25.211,171.512-70.988
		C459.789,368.234,485,307.323,485,242.5S459.789,116.766,414.012,70.988z M242.5,455C125.327,455,30,359.673,30,242.5
		S125.327,30,242.5,30S455,125.327,455,242.5S359.673,455,242.5,455z"/>
	<path d="M242.5,177.5c-35.841,0-65,29.159-65,65s29.159,65,65,65s65-29.159,65-65S278.341,177.5,242.5,177.5z"/>
</svg>
